<svg width="36" height="36" viewBox="0 0 36 36" fill="none" xmlns="http://www.w3.org/2000/svg">
<path d="M13.875 33L13.275 28.2C12.95 28.075 12.644 27.925 12.357 27.75C12.07 27.575 11.7885 27.3875 11.5125 27.1875L7.05005 29.0625L2.92505 21.9375L6.78755 19.0125C6.76255 18.8375 6.75005 18.669 6.75005 18.507V17.4945C6.75005 17.3315 6.76255 17.1625 6.78755 16.9875L2.92505 14.0625L7.05005 6.9375L11.5125 8.8125C11.7875 8.6125 12.075 8.425 12.375 8.25C12.675 8.075 12.975 7.925 13.275 7.8L13.875 3H22.125L22.725 7.8C23.05 7.925 23.3565 8.075 23.6445 8.25C23.9325 8.425 24.2136 8.6125 24.4876 8.8125L28.95 6.9375L33.075 14.0625L29.2125 16.9875C29.2375 17.1625 29.25 17.3315 29.25 17.4945V18.5055C29.25 18.6685 29.225 18.8375 29.175 19.0125L33.0375 21.9375L28.9125 29.0625L24.4876 27.1875C24.2126 27.3875 23.925 27.575 23.625 27.75C23.325 27.925 23.025 28.075 22.725 28.2L22.125 33H13.875ZM18.075 23.25C19.525 23.25 20.7625 22.7375 21.7875 21.7125C22.8125 20.6875 23.3251 19.45 23.3251 18C23.3251 16.55 22.8125 15.3125 21.7875 14.2875C20.7625 13.2625 19.525 12.75 18.075 12.75C16.6 12.75 15.356 13.2625 14.3431 14.2875C13.33 15.3125 12.824 16.55 12.825 18C12.826 19.45 13.3325 20.6875 14.3445 21.7125C15.3565 22.7375 16.6 23.25 18.075 23.25Z" fill="#07713C"/>
</svg>
